<?xml version="1.0" standalone="no"?>
<!DOCTYPE svg PUBLIC "-//W3C//DTD SVG 20010904//EN"
 "http://www.w3.org/TR/2001/REC-SVG-20010904/DTD/svg10.dtd">
<svg version="1.0" xmlns="http://www.w3.org/2000/svg"
 width="271.000000pt" height="269.000000pt" viewBox="0 0 271.000000 269.000000"
 preserveAspectRatio="xMidYMid meet">
<style type="style">
  .primary {
    fill: #C4161C;
  }
  .secondary {
    fill: #000
  }
</style>
<g transform="translate(0.000000,269.000000) scale(0.100000,-0.100000)"
fill="#000000" stroke="none">
<path fill="#C4161C" d="M1395 2179 c356 -259 653 -473 660 -476 22 -8 58 126 58 212 0 69 -2
73 -120 315 -66 135 -134 275 -151 312 -52 115 -13 108 -596 108 l-499 0 648
-471z"/>
<path class="secondary" d="M656 2434 c-32 -91 -57 -166 -55 -168 10 -7 463 61 466 70 3 8 -335
264 -349 264 -2 0 -30 -74 -62 -166z"/>
<path class="secondary" d="M1960 2434 c0 -18 195 -404 205 -404 6 0 40 87 74 193 35 105 66 198
68 205 4 9 -34 12 -171 12 -97 0 -176 -3 -176 -6z"/>
<path fill="#C4161C" d="M2117 1653 c-136 -417 -247 -761 -247 -765 0 -15 154 -8 213 9 57 16
71 27 311 255 138 131 257 248 263 260 7 13 13 36 13 51 0 30 -291 947 -300
947 -3 0 -117 -341 -253 -757z"/>
<path fill="#C4161C" d="M750 2229 c-146 -21 -284 -41 -308 -44 -87 -12 -86 -10 -251 -525
-83 -255 -149 -466 -147 -467 7 -8 1296 941 1293 951 -6 19 -108 85 -164 106
-71 26 -106 25 -423 -21z"/>
<path fill="#C4161C" d="M630 1537 c-65 -51 -108 -100 -126 -143 -7 -18 -29 -128 -49 -245
-20 -118 -45 -259 -56 -314 -26 -137 -25 -164 9 -202 20 -24 729 -541 789
-576 14 -9 2 29 -272 861 -121 364 -224 662 -230 662 -5 0 -35 -20 -65 -43z"/>
<path class="secondary" d="M242 1264 c-96 -70 -170 -130 -165 -134 27 -25 275 -211 277 -208 2
3 76 418 79 447 1 8 -3 16 -8 18 -6 1 -88 -54 -183 -123z"/>
<path class="secondary" d="M2372 1052 c-89 -86 -162 -160 -162 -164 0 -5 97 -8 216 -8 201 0
216 1 212 18 -31 112 -93 312 -97 312 -3 -1 -79 -72 -169 -158z"/>
<path fill="#C4161C" d="M1030 797 c0 -24 39 -129 64 -171 39 -66 70 -88 266 -191 102 -54
233 -124 292 -156 117 -65 160 -73 213 -41 17 11 200 143 409 295 l378 277
-811 0 c-672 0 -811 -2 -811 -13z"/>
<path class="secondary" d="M1136 482 c-2 -4 25 -99 61 -210 l65 -202 144 98 c79 53 144 99 144
102 0 3 -33 22 -72 42 -40 21 -132 69 -205 108 -72 38 -134 67 -137 62z"/>
</g>
</svg>
